<svg xmlns="http://www.w3.org/2000/svg" viewBox="0 0 782 148" width="782" height="148">
<style>
  @keyframes drop { from { opacity: 0; transform: translateY(-3px); } to { opacity: 1; transform: translateY(0); } }
  .box { opacity: 0; animation: drop 0.4s ease-out forwards; rx: 2; ry: 2; }
  .text { font-family: monospace; font-size: 10px; fill: #8b949e; }
</style>
  <rect class="box" x="20" y="20" width="10" height="10" fill="#161b22" rx="2" ry="2" style="animation-delay: 0.0s" />
  <rect class="box" x="20" y="34" width="10" height="10" fill="#161b22" rx="2" ry="2" style="animation-delay: 0.015s" />
  <rect class="box" x="20" y="48" width="10" height="10" fill="#161b22" rx="2" ry="2" style="animation-delay: 0.03s" />
  <rect class="box" x="20" y="62" width="10" height="10" fill="#161b22" rx="2" ry="2" style="animation-delay: 0.045s" />
  <rect class="box" x="20" y="76" width="10" height="10" fill="#161b22" rx="2" ry="2" style="animation-delay: 0.06s" />
  <rect class="box" x="20" y="90" width="10" height="10" fill="#161b22" rx="2" ry="2" style="animation-delay: 0.075s" />
  <rect class="box" x="20" y="104" width="10" height="10" fill="#161b22" rx="2" ry="2" style="animation-delay: 0.09s" />
  <rect class="box" x="34" y="20" width="10" height="10" fill="#161b22" rx="2" ry="2" style="animation-delay: 0.015s" />
  <rect class="box" x="34" y="34" width="10" height="10" fill="#161b22" rx="2" ry="2" style="animation-delay: 0.03s" />
  <rect class="box" x="34" y="48" width="10" height="10" fill="#161b22" rx="2" ry="2" style="animation-delay: 0.045s" />
  <rect class="box" x="34" y="62" width="10" height="10" fill="#161b22" rx="2" ry="2" style="animation-delay: 0.06s" />
  <rect class="box" x="34" y="76" width="10" height="10" fill="#161b22" rx="2" ry="2" style="animation-delay: 0.075s" />
  <rect class="box" x="34" y="90" width="10" height="10" fill="#161b22" rx="2" ry="2" style="animation-delay: 0.09s" />
  <rect class="box" x="34" y="104" width="10" height="10" fill="#161b22" rx="2" ry="2" style="animation-delay: 0.105s" />
  <rect class="box" x="48" y="20" width="10" height="10" fill="#161b22" rx="2" ry="2" style="animation-delay: 0.03s" />
  <rect class="box" x="48" y="34" width="10" height="10" fill="#161b22" rx="2" ry="2" style="animation-delay: 0.045s" />
  <rect class="box" x="48" y="48" width="10" height="10" fill="#161b22" rx="2" ry="2" style="animation-delay: 0.06s" />
  <rect class="box" x="48" y="62" width="10" height="10" fill="#161b22" rx="2" ry="2" style="animation-delay: 0.075s" />
  <rect class="box" x="48" y="76" width="10" height="10" fill="#161b22" rx="2" ry="2" style="animation-delay: 0.09s" />
  <rect class="box" x="48" y="90" width="10" height="10" fill="#161b22" rx="2" ry="2" style="animation-delay: 0.105s" />
  <rect class="box" x="48" y="104" width="10" height="10" fill="#0e4429" rx="2" ry="2" style="animation-delay: 0.12s" />
  <rect class="box" x="62" y="20" width="10" height="10" fill="#161b22" rx="2" ry="2" style="animation-delay: 0.045s" />
  <rect class="box" x="62" y="34" width="10" height="10" fill="#161b22" rx="2" ry="2" style="animation-delay: 0.06s" />
  <rect class="box" x="62" y="48" width="10" height="10" fill="#161b22" rx="2" ry="2" style="animation-delay: 0.075s" />
  <rect class="box" x="62" y="62" width="10" height="10" fill="#161b22" rx="2" ry="2" style="animation-delay: 0.09s" />
  <rect class="box" x="62" y="76" width="10" height="10" fill="#161b22" rx="2" ry="2" style="animation-delay: 0.105s" />
  <rect class="box" x="62" y="90" width="10" height="10" fill="#0e4429" rx="2" ry="2" style="animation-delay: 0.12s" />
  <rect class="box" x="62" y="104" width="10" height="10" fill="#161b22" rx="2" ry="2" style="animation-delay: 0.135s" />
  <rect class="box" x="76" y="20" width="10" height="10" fill="#161b22" rx="2" ry="2" style="animation-delay: 0.06s" />
  <rect class="box" x="76" y="34" width="10" height="10" fill="#161b22" rx="2" ry="2" style="animation-delay: 0.075s" />
  <rect class="box" x="76" y="48" width="10" height="10" fill="#161b22" rx="2" ry="2" style="animation-delay: 0.09s" />
  <rect class="box" x="76" y="62" width="10" height="10" fill="#161b22" rx="2" ry="2" style="animation-delay: 0.105s" />
  <rect class="box" x="76" y="76" width="10" height="10" fill="#161b22" rx="2" ry="2" style="animation-delay: 0.12s" />
  <rect class="box" x="76" y="90" width="10" height="10" fill="#0e4429" rx="2" ry="2" style="animation-delay: 0.135s" />
  <rect class="box" x="76" y="104" width="10" height="10" fill="#161b22" rx="2" ry="2" style="animation-delay: 0.15s" />
  <rect class="box" x="90" y="20" width="10" height="10" fill="#26a641" rx="2" ry="2" style="animation-delay: 0.075s" />
  <rect class="box" x="90" y="34" width="10" height="10" fill="#006d32" rx="2" ry="2" style="animation-delay: 0.09s" />
  <rect class="box" x="90" y="48" width="10" height="10" fill="#0e4429" rx="2" ry="2" style="animation-delay: 0.105s" />
  <rect class="box" x="90" y="62" width="10" height="10" fill="#161b22" rx="2" ry="2" style="animation-delay: 0.12s" />
  <rect class="box" x="90" y="76" width="10" height="10" fill="#161b22" rx="2" ry="2" style="animation-delay: 0.135s" />
  <rect class="box" x="90" y="90" width="10" height="10" fill="#161b22" rx="2" ry="2" style="animation-delay: 0.15s" />
  <rect class="box" x="90" y="104" width="10" height="10" fill="#161b22" rx="2" ry="2" style="animation-delay: 0.165s" />
  <rect class="box" x="104" y="20" width="10" height="10" fill="#161b22" rx="2" ry="2" style="animation-delay: 0.09s" />
  <rect class="box" x="104" y="34" width="10" height="10" fill="#161b22" rx="2" ry="2" style="animation-delay: 0.105s" />
  <rect class="box" x="104" y="48" width="10" height="10" fill="#161b22" rx="2" ry="2" style="animation-delay: 0.12s" />
  <rect class="box" x="104" y="62" width="10" height="10" fill="#161b22" rx="2" ry="2" style="animation-delay: 0.135s" />
  <rect class="box" x="104" y="76" width="10" height="10" fill="#0e4429" rx="2" ry="2" style="animation-delay: 0.15s" />
  <rect class="box" x="104" y="90" width="10" height="10" fill="#161b22" rx="2" ry="2" style="animation-delay: 0.165s" />
  <rect class="box" x="104" y="104" width="10" height="10" fill="#161b22" rx="2" ry="2" style="animation-delay: 0.18s" />
  <rect class="box" x="118" y="20" width="10" height="10" fill="#26a641" rx="2" ry="2" style="animation-delay: 0.105s" />
  <rect class="box" x="118" y="34" width="10" height="10" fill="#006d32" rx="2" ry="2" style="animation-delay: 0.12s" />
  <rect class="box" x="118" y="48" width="10" height="10" fill="#26a641" rx="2" ry="2" style="animation-delay: 0.135s" />
  <rect class="box" x="118" y="62" width="10" height="10" fill="#006d32" rx="2" ry="2" style="animation-delay: 0.15s" />
  <rect class="box" x="118" y="76" width="10" height="10" fill="#161b22" rx="2" ry="2" style="animation-delay: 0.165s" />
  <rect class="box" x="118" y="90" width="10" height="10" fill="#161b22" rx="2" ry="2" style="animation-delay: 0.18s" />
  <rect class="box" x="118" y="104" width="10" height="10" fill="#161b22" rx="2" ry="2" style="animation-delay: 0.195s" />
  <rect class="box" x="132" y="20" width="10" height="10" fill="#161b22" rx="2" ry="2" style="animation-delay: 0.12s" />
  <rect class="box" x="132" y="34" width="10" height="10" fill="#161b22" rx="2" ry="2" style="animation-delay: 0.135s" />
  <rect class="box" x="132" y="48" width="10" height="10" fill="#161b22" rx="2" ry="2" style="animation-delay: 0.15s" />
  <rect class="box" x="132" y="62" width="10" height="10" fill="#161b22" rx="2" ry="2" style="animation-delay: 0.165s" />
  <rect class="box" x="132" y="76" width="10" height="10" fill="#0e4429" rx="2" ry="2" style="animation-delay: 0.18s" />
  <rect class="box" x="132" y="90" width="10" height="10" fill="#161b22" rx="2" ry="2" style="animation-delay: 0.195s" />
  <rect class="box" x="132" y="104" width="10" height="10" fill="#161b22" rx="2" ry="2" style="animation-delay: 0.21s" />
  <rect class="box" x="146" y="20" width="10" height="10" fill="#161b22" rx="2" ry="2" style="animation-delay: 0.135s" />
  <rect class="box" x="146" y="34" width="10" height="10" fill="#161b22" rx="2" ry="2" style="animation-delay: 0.15s" />
  <rect class="box" x="146" y="48" width="10" height="10" fill="#161b22" rx="2" ry="2" style="animation-delay: 0.165s" />
  <rect class="box" x="146" y="62" width="10" height="10" fill="#161b22" rx="2" ry="2" style="animation-delay: 0.18s" />
  <rect class="box" x="146" y="76" width="10" height="10" fill="#161b22" rx="2" ry="2" style="animation-delay: 0.195s" />
  <rect class="box" x="146" y="90" width="10" height="10" fill="#161b22" rx="2" ry="2" style="animation-delay: 0.21s" />
  <rect class="box" x="146" y="104" width="10" height="10" fill="#161b22" rx="2" ry="2" style="animation-delay: 0.225s" />
  <rect class="box" x="160" y="20" width="10" height="10" fill="#161b22" rx="2" ry="2" style="animation-delay: 0.15s" />
  <rect class="box" x="160" y="34" width="10" height="10" fill="#161b22" rx="2" ry="2" style="animation-delay: 0.165s" />
  <rect class="box" x="160" y="48" width="10" height="10" fill="#161b22" rx="2" ry="2" style="animation-delay: 0.18s" />
  <rect class="box" x="160" y="62" width="10" height="10" fill="#161b22" rx="2" ry="2" style="animation-delay: 0.195s" />
  <rect class="box" x="160" y="76" width="10" height="10" fill="#161b22" rx="2" ry="2" style="animation-delay: 0.21s" />
  <rect class="box" x="160" y="90" width="10" height="10" fill="#0e4429" rx="2" ry="2" style="animation-delay: 0.225s" />
  <rect class="box" x="160" y="104" width="10" height="10" fill="#161b22" rx="2" ry="2" style="animation-delay: 0.24s" />
  <rect class="box" x="174" y="20" width="10" height="10" fill="#161b22" rx="2" ry="2" style="animation-delay: 0.165s" />
  <rect class="box" x="174" y="34" width="10" height="10" fill="#161b22" rx="2" ry="2" style="animation-delay: 0.18s" />
  <rect class="box" x="174" y="48" width="10" height="10" fill="#161b22" rx="2" ry="2" style="animation-delay: 0.195s" />
  <rect class="box" x="174" y="62" width="10" height="10" fill="#161b22" rx="2" ry="2" style="animation-delay: 0.21s" />
  <rect class="box" x="174" y="76" width="10" height="10" fill="#0e4429" rx="2" ry="2" style="animation-delay: 0.225s" />
  <rect class="box" x="174" y="90" width="10" height="10" fill="#161b22" rx="2" ry="2" style="animation-delay: 0.24s" />
  <rect class="box" x="174" y="104" width="10" height="10" fill="#0e4429" rx="2" ry="2" style="animation-delay: 0.255s" />
  <rect class="box" x="188" y="20" width="10" height="10" fill="#161b22" rx="2" ry="2" style="animation-delay: 0.18s" />
  <rect class="box" x="188" y="34" width="10" height="10" fill="#161b22" rx="2" ry="2" style="animation-delay: 0.195s" />
  <rect class="box" x="188" y="48" width="10" height="10" fill="#0e4429" rx="2" ry="2" style="animation-delay: 0.21s" />
  <rect class="box" x="188" y="62" width="10" height="10" fill="#161b22" rx="2" ry="2" style="animation-delay: 0.225s" />
  <rect class="box" x="188" y="76" width="10" height="10" fill="#006d32" rx="2" ry="2" style="animation-delay: 0.24s" />
  <rect class="box" x="188" y="90" width="10" height="10" fill="#0e4429" rx="2" ry="2" style="animation-delay: 0.255s" />
  <rect class="box" x="188" y="104" width="10" height="10" fill="#161b22" rx="2" ry="2" style="animation-delay: 0.27s" />
  <rect class="box" x="202" y="20" width="10" height="10" fill="#161b22" rx="2" ry="2" style="animation-delay: 0.195s" />
  <rect class="box" x="202" y="34" width="10" height="10" fill="#161b22" rx="2" ry="2" style="animation-delay: 0.21s" />
  <rect class="box" x="202" y="48" width="10" height="10" fill="#161b22" rx="2" ry="2" style="animation-delay: 0.225s" />
  <rect class="box" x="202" y="62" width="10" height="10" fill="#161b22" rx="2" ry="2" style="animation-delay: 0.24s" />
  <rect class="box" x="202" y="76" width="10" height="10" fill="#161b22" rx="2" ry="2" style="animation-delay: 0.255s" />
  <rect class="box" x="202" y="90" width="10" height="10" fill="#161b22" rx="2" ry="2" style="animation-delay: 0.27s" />
  <rect class="box" x="202" y="104" width="10" height="10" fill="#006d32" rx="2" ry="2" style="animation-delay: 0.285s" />
  <rect class="box" x="216" y="20" width="10" height="10" fill="#161b22" rx="2" ry="2" style="animation-delay: 0.21s" />
  <rect class="box" x="216" y="34" width="10" height="10" fill="#0e4429" rx="2" ry="2" style="animation-delay: 0.225s" />
  <rect class="box" x="216" y="48" width="10" height="10" fill="#006d32" rx="2" ry="2" style="animation-delay: 0.24s" />
  <rect class="box" x="216" y="62" width="10" height="10" fill="#39d353" rx="2" ry="2" style="animation-delay: 0.255s" />
  <rect class="box" x="216" y="76" width="10" height="10" fill="#39d353" rx="2" ry="2" style="animation-delay: 0.27s" />
  <rect class="box" x="216" y="90" width="10" height="10" fill="#161b22" rx="2" ry="2" style="animation-delay: 0.285s" />
  <rect class="box" x="216" y="104" width="10" height="10" fill="#006d32" rx="2" ry="2" style="animation-delay: 0.3s" />
  <rect class="box" x="230" y="20" width="10" height="10" fill="#006d32" rx="2" ry="2" style="animation-delay: 0.225s" />
  <rect class="box" x="230" y="34" width="10" height="10" fill="#161b22" rx="2" ry="2" style="animation-delay: 0.24s" />
  <rect class="box" x="230" y="48" width="10" height="10" fill="#161b22" rx="2" ry="2" style="animation-delay: 0.255s" />
  <rect class="box" x="230" y="62" width="10" height="10" fill="#161b22" rx="2" ry="2" style="animation-delay: 0.27s" />
  <rect class="box" x="230" y="76" width="10" height="10" fill="#161b22" rx="2" ry="2" style="animation-delay: 0.285s" />
  <rect class="box" x="230" y="90" width="10" height="10" fill="#161b22" rx="2" ry="2" style="animation-delay: 0.3s" />
  <rect class="box" x="230" y="104" width="10" height="10" fill="#161b22" rx="2" ry="2" style="animation-delay: 0.315s" />
  <rect class="box" x="244" y="20" width="10" height="10" fill="#161b22" rx="2" ry="2" style="animation-delay: 0.24s" />
  <rect class="box" x="244" y="34" width="10" height="10" fill="#161b22" rx="2" ry="2" style="animation-delay: 0.255s" />
  <rect class="box" x="244" y="48" width="10" height="10" fill="#161b22" rx="2" ry="2" style="animation-delay: 0.27s" />
  <rect class="box" x="244" y="62" width="10" height="10" fill="#161b22" rx="2" ry="2" style="animation-delay: 0.285s" />
  <rect class="box" x="244" y="76" width="10" height="10" fill="#161b22" rx="2" ry="2" style="animation-delay: 0.3s" />
  <rect class="box" x="244" y="90" width="10" height="10" fill="#161b22" rx="2" ry="2" style="animation-delay: 0.315s" />
  <rect class="box" x="244" y="104" width="10" height="10" fill="#161b22" rx="2" ry="2" style="animation-delay: 0.33s" />
  <rect class="box" x="258" y="20" width="10" height="10" fill="#161b22" rx="2" ry="2" style="animation-delay: 0.255s" />
  <rect class="box" x="258" y="34" width="10" height="10" fill="#161b22" rx="2" ry="2" style="animation-delay: 0.27s" />
  <rect class="box" x="258" y="48" width="10" height="10" fill="#161b22" rx="2" ry="2" style="animation-delay: 0.285s" />
  <rect class="box" x="258" y="62" width="10" height="10" fill="#161b22" rx="2" ry="2" style="animation-delay: 0.3s" />
  <rect class="box" x="258" y="76" width="10" height="10" fill="#161b22" rx="2" ry="2" style="animation-delay: 0.315s" />
  <rect class="box" x="258" y="90" width="10" height="10" fill="#161b22" rx="2" ry="2" style="animation-delay: 0.33s" />
  <rect class="box" x="258" y="104" width="10" height="10" fill="#161b22" rx="2" ry="2" style="animation-delay: 0.345s" />
  <rect class="box" x="272" y="20" width="10" height="10" fill="#161b22" rx="2" ry="2" style="animation-delay: 0.27s" />
  <rect class="box" x="272" y="34" width="10" height="10" fill="#161b22" rx="2" ry="2" style="animation-delay: 0.285s" />
  <rect class="box" x="272" y="48" width="10" height="10" fill="#161b22" rx="2" ry="2" style="animation-delay: 0.3s" />
  <rect class="box" x="272" y="62" width="10" height="10" fill="#161b22" rx="2" ry="2" style="animation-delay: 0.315s" />
  <rect class="box" x="272" y="76" width="10" height="10" fill="#161b22" rx="2" ry="2" style="animation-delay: 0.33s" />
  <rect class="box" x="272" y="90" width="10" height="10" fill="#161b22" rx="2" ry="2" style="animation-delay: 0.345s" />
  <rect class="box" x="272" y="104" width="10" height="10" fill="#161b22" rx="2" ry="2" style="animation-delay: 0.36s" />
  <rect class="box" x="286" y="20" width="10" height="10" fill="#161b22" rx="2" ry="2" style="animation-delay: 0.285s" />
  <rect class="box" x="286" y="34" width="10" height="10" fill="#161b22" rx="2" ry="2" style="animation-delay: 0.3s" />
  <rect class="box" x="286" y="48" width="10" height="10" fill="#161b22" rx="2" ry="2" style="animation-delay: 0.315s" />
  <rect class="box" x="286" y="62" width="10" height="10" fill="#161b22" rx="2" ry="2" style="animation-delay: 0.33s" />
  <rect class="box" x="286" y="76" width="10" height="10" fill="#161b22" rx="2" ry="2" style="animation-delay: 0.345s" />
  <rect class="box" x="286" y="90" width="10" height="10" fill="#0e4429" rx="2" ry="2" style="animation-delay: 0.36s" />
  <rect class="box" x="286" y="104" width="10" height="10" fill="#0e4429" rx="2" ry="2" style="animation-delay: 0.375s" />
  <rect class="box" x="300" y="20" width="10" height="10" fill="#161b22" rx="2" ry="2" style="animation-delay: 0.3s" />
  <rect class="box" x="300" y="34" width="10" height="10" fill="#0e4429" rx="2" ry="2" style="animation-delay: 0.315s" />
  <rect class="box" x="300" y="48" width="10" height="10" fill="#0e4429" rx="2" ry="2" style="animation-delay: 0.33s" />
  <rect class="box" x="300" y="62" width="10" height="10" fill="#0e4429" rx="2" ry="2" style="animation-delay: 0.345s" />
  <rect class="box" x="300" y="76" width="10" height="10" fill="#161b22" rx="2" ry="2" style="animation-delay: 0.36s" />
  <rect class="box" x="300" y="90" width="10" height="10" fill="#0e4429" rx="2" ry="2" style="animation-delay: 0.375s" />
  <rect class="box" x="300" y="104" width="10" height="10" fill="#161b22" rx="2" ry="2" style="animation-delay: 0.39s" />
  <rect class="box" x="314" y="20" width="10" height="10" fill="#161b22" rx="2" ry="2" style="animation-delay: 0.315s" />
  <rect class="box" x="314" y="34" width="10" height="10" fill="#161b22" rx="2" ry="2" style="animation-delay: 0.33s" />
  <rect class="box" x="314" y="48" width="10" height="10" fill="#161b22" rx="2" ry="2" style="animation-delay: 0.345s" />
  <rect class="box" x="314" y="62" width="10" height="10" fill="#0e4429" rx="2" ry="2" style="animation-delay: 0.36s" />
  <rect class="box" x="314" y="76" width="10" height="10" fill="#0e4429" rx="2" ry="2" style="animation-delay: 0.375s" />
  <rect class="box" x="314" y="90" width="10" height="10" fill="#0e4429" rx="2" ry="2" style="animation-delay: 0.39s" />
  <rect class="box" x="314" y="104" width="10" height="10" fill="#0e4429" rx="2" ry="2" style="animation-delay: 0.405s" />
  <rect class="box" x="328" y="20" width="10" height="10" fill="#26a641" rx="2" ry="2" style="animation-delay: 0.33s" />
  <rect class="box" x="328" y="34" width="10" height="10" fill="#39d353" rx="2" ry="2" style="animation-delay: 0.345s" />
  <rect class="box" x="328" y="48" width="10" height="10" fill="#161b22" rx="2" ry="2" style="animation-delay: 0.36s" />
  <rect class="box" x="328" y="62" width="10" height="10" fill="#006d32" rx="2" ry="2" style="animation-delay: 0.375s" />
  <rect class="box" x="328" y="76" width="10" height="10" fill="#0e4429" rx="2" ry="2" style="animation-delay: 0.39s" />
  <rect class="box" x="328" y="90" width="10" height="10" fill="#161b22" rx="2" ry="2" style="animation-delay: 0.405s" />
  <rect class="box" x="328" y="104" width="10" height="10" fill="#161b22" rx="2" ry="2" style="animation-delay: 0.42s" />
  <rect class="box" x="342" y="20" width="10" height="10" fill="#161b22" rx="2" ry="2" style="animation-delay: 0.345s" />
  <rect class="box" x="342" y="34" width="10" height="10" fill="#161b22" rx="2" ry="2" style="animation-delay: 0.36s" />
  <rect class="box" x="342" y="48" width="10" height="10" fill="#161b22" rx="2" ry="2" style="animation-delay: 0.375s" />
  <rect class="box" x="342" y="62" width="10" height="10" fill="#161b22" rx="2" ry="2" style="animation-delay: 0.39s" />
  <rect class="box" x="342" y="76" width="10" height="10" fill="#161b22" rx="2" ry="2" style="animation-delay: 0.405s" />
  <rect class="box" x="342" y="90" width="10" height="10" fill="#161b22" rx="2" ry="2" style="animation-delay: 0.42s" />
  <rect class="box" x="342" y="104" width="10" height="10" fill="#161b22" rx="2" ry="2" style="animation-delay: 0.435s" />
  <rect class="box" x="356" y="20" width="10" height="10" fill="#161b22" rx="2" ry="2" style="animation-delay: 0.36s" />
  <rect class="box" x="356" y="34" width="10" height="10" fill="#161b22" rx="2" ry="2" style="animation-delay: 0.375s" />
  <rect class="box" x="356" y="48" width="10" height="10" fill="#161b22" rx="2" ry="2" style="animation-delay: 0.39s" />
  <rect class="box" x="356" y="62" width="10" height="10" fill="#161b22" rx="2" ry="2" style="animation-delay: 0.405s" />
  <rect class="box" x="356" y="76" width="10" height="10" fill="#161b22" rx="2" ry="2" style="animation-delay: 0.42s" />
  <rect class="box" x="356" y="90" width="10" height="10" fill="#161b22" rx="2" ry="2" style="animation-delay: 0.435s" />
  <rect class="box" x="356" y="104" width="10" height="10" fill="#161b22" rx="2" ry="2" style="animation-delay: 0.45s" />
  <rect class="box" x="370" y="20" width="10" height="10" fill="#161b22" rx="2" ry="2" style="animation-delay: 0.375s" />
  <rect class="box" x="370" y="34" width="10" height="10" fill="#161b22" rx="2" ry="2" style="animation-delay: 0.39s" />
  <rect class="box" x="370" y="48" width="10" height="10" fill="#0e4429" rx="2" ry="2" style="animation-delay: 0.405s" />
  <rect class="box" x="370" y="62" width="10" height="10" fill="#0e4429" rx="2" ry="2" style="animation-delay: 0.42s" />
  <rect class="box" x="370" y="76" width="10" height="10" fill="#161b22" rx="2" ry="2" style="animation-delay: 0.435s" />
  <rect class="box" x="370" y="90" width="10" height="10" fill="#161b22" rx="2" ry="2" style="animation-delay: 0.45s" />
  <rect class="box" x="370" y="104" width="10" height="10" fill="#0e4429" rx="2" ry="2" style="animation-delay: 0.465s" />
  <rect class="box" x="384" y="20" width="10" height="10" fill="#161b22" rx="2" ry="2" style="animation-delay: 0.39s" />
  <rect class="box" x="384" y="34" width="10" height="10" fill="#161b22" rx="2" ry="2" style="animation-delay: 0.405s" />
  <rect class="box" x="384" y="48" width="10" height="10" fill="#161b22" rx="2" ry="2" style="animation-delay: 0.42s" />
  <rect class="box" x="384" y="62" width="10" height="10" fill="#161b22" rx="2" ry="2" style="animation-delay: 0.435s" />
  <rect class="box" x="384" y="76" width="10" height="10" fill="#0e4429" rx="2" ry="2" style="animation-delay: 0.45s" />
  <rect class="box" x="384" y="90" width="10" height="10" fill="#161b22" rx="2" ry="2" style="animation-delay: 0.465s" />
  <rect class="box" x="384" y="104" width="10" height="10" fill="#161b22" rx="2" ry="2" style="animation-delay: 0.48s" />
  <rect class="box" x="398" y="20" width="10" height="10" fill="#161b22" rx="2" ry="2" style="animation-delay: 0.405s" />
  <rect class="box" x="398" y="34" width="10" height="10" fill="#161b22" rx="2" ry="2" style="animation-delay: 0.42s" />
  <rect class="box" x="398" y="48" width="10" height="10" fill="#161b22" rx="2" ry="2" style="animation-delay: 0.435s" />
  <rect class="box" x="398" y="62" width="10" height="10" fill="#0e4429" rx="2" ry="2" style="animation-delay: 0.45s" />
  <rect class="box" x="398" y="76" width="10" height="10" fill="#161b22" rx="2" ry="2" style="animation-delay: 0.465s" />
  <rect class="box" x="398" y="90" width="10" height="10" fill="#0e4429" rx="2" ry="2" style="animation-delay: 0.48s" />
  <rect class="box" x="398" y="104" width="10" height="10" fill="#0e4429" rx="2" ry="2" style="animation-delay: 0.495s" />
  <rect class="box" x="412" y="20" width="10" height="10" fill="#161b22" rx="2" ry="2" style="animation-delay: 0.42s" />
  <rect class="box" x="412" y="34" width="10" height="10" fill="#161b22" rx="2" ry="2" style="animation-delay: 0.435s" />
  <rect class="box" x="412" y="48" width="10" height="10" fill="#0e4429" rx="2" ry="2" style="animation-delay: 0.45s" />
  <rect class="box" x="412" y="62" width="10" height="10" fill="#161b22" rx="2" ry="2" style="animation-delay: 0.465s" />
  <rect class="box" x="412" y="76" width="10" height="10" fill="#161b22" rx="2" ry="2" style="animation-delay: 0.48s" />
  <rect class="box" x="412" y="90" width="10" height="10" fill="#161b22" rx="2" ry="2" style="animation-delay: 0.495s" />
  <rect class="box" x="412" y="104" width="10" height="10" fill="#161b22" rx="2" ry="2" style="animation-delay: 0.51s" />
  <rect class="box" x="426" y="20" width="10" height="10" fill="#0e4429" rx="2" ry="2" style="animation-delay: 0.435s" />
  <rect class="box" x="426" y="34" width="10" height="10" fill="#0e4429" rx="2" ry="2" style="animation-delay: 0.45s" />
  <rect class="box" x="426" y="48" width="10" height="10" fill="#161b22" rx="2" ry="2" style="animation-delay: 0.465s" />
  <rect class="box" x="426" y="62" width="10" height="10" fill="#0e4429" rx="2" ry="2" style="animation-delay: 0.48s" />
  <rect class="box" x="426" y="76" width="10" height="10" fill="#39d353" rx="2" ry="2" style="animation-delay: 0.495s" />
  <rect class="box" x="426" y="90" width="10" height="10" fill="#006d32" rx="2" ry="2" style="animation-delay: 0.51s" />
  <rect class="box" x="426" y="104" width="10" height="10" fill="#0e4429" rx="2" ry="2" style="animation-delay: 0.525s" />
  <rect class="box" x="440" y="20" width="10" height="10" fill="#39d353" rx="2" ry="2" style="animation-delay: 0.45s" />
  <rect class="box" x="440" y="34" width="10" height="10" fill="#26a641" rx="2" ry="2" style="animation-delay: 0.465s" />
  <rect class="box" x="440" y="48" width="10" height="10" fill="#161b22" rx="2" ry="2" style="animation-delay: 0.48s" />
  <rect class="box" x="440" y="62" width="10" height="10" fill="#161b22" rx="2" ry="2" style="animation-delay: 0.495s" />
  <rect class="box" x="440" y="76" width="10" height="10" fill="#161b22" rx="2" ry="2" style="animation-delay: 0.51s" />
  <rect class="box" x="440" y="90" width="10" height="10" fill="#161b22" rx="2" ry="2" style="animation-delay: 0.525s" />
  <rect class="box" x="440" y="104" width="10" height="10" fill="#161b22" rx="2" ry="2" style="animation-delay: 0.54s" />
  <rect class="box" x="454" y="20" width="10" height="10" fill="#161b22" rx="2" ry="2" style="animation-delay: 0.465s" />
  <rect class="box" x="454" y="34" width="10" height="10" fill="#161b22" rx="2" ry="2" style="animation-delay: 0.48s" />
  <rect class="box" x="454" y="48" width="10" height="10" fill="#161b22" rx="2" ry="2" style="animation-delay: 0.495s" />
  <rect class="box" x="454" y="62" width="10" height="10" fill="#161b22" rx="2" ry="2" style="animation-delay: 0.51s" />
  <rect class="box" x="454" y="76" width="10" height="10" fill="#161b22" rx="2" ry="2" style="animation-delay: 0.525s" />
  <rect class="box" x="454" y="90" width="10" height="10" fill="#161b22" rx="2" ry="2" style="animation-delay: 0.54s" />
  <rect class="box" x="454" y="104" width="10" height="10" fill="#161b22" rx="2" ry="2" style="animation-delay: 0.555s" />
  <rect class="box" x="468" y="20" width="10" height="10" fill="#161b22" rx="2" ry="2" style="animation-delay: 0.48s" />
  <rect class="box" x="468" y="34" width="10" height="10" fill="#161b22" rx="2" ry="2" style="animation-delay: 0.495s" />
  <rect class="box" x="468" y="48" width="10" height="10" fill="#161b22" rx="2" ry="2" style="animation-delay: 0.51s" />
  <rect class="box" x="468" y="62" width="10" height="10" fill="#161b22" rx="2" ry="2" style="animation-delay: 0.525s" />
  <rect class="box" x="468" y="76" width="10" height="10" fill="#161b22" rx="2" ry="2" style="animation-delay: 0.54s" />
  <rect class="box" x="468" y="90" width="10" height="10" fill="#161b22" rx="2" ry="2" style="animation-delay: 0.555s" />
  <rect class="box" x="468" y="104" width="10" height="10" fill="#161b22" rx="2" ry="2" style="animation-delay: 0.57s" />
  <rect class="box" x="482" y="20" width="10" height="10" fill="#161b22" rx="2" ry="2" style="animation-delay: 0.495s" />
  <rect class="box" x="482" y="34" width="10" height="10" fill="#161b22" rx="2" ry="2" style="animation-delay: 0.51s" />
  <rect class="box" x="482" y="48" width="10" height="10" fill="#161b22" rx="2" ry="2" style="animation-delay: 0.525s" />
  <rect class="box" x="482" y="62" width="10" height="10" fill="#161b22" rx="2" ry="2" style="animation-delay: 0.54s" />
  <rect class="box" x="482" y="76" width="10" height="10" fill="#161b22" rx="2" ry="2" style="animation-delay: 0.555s" />
  <rect class="box" x="482" y="90" width="10" height="10" fill="#161b22" rx="2" ry="2" style="animation-delay: 0.57s" />
  <rect class="box" x="482" y="104" width="10" height="10" fill="#161b22" rx="2" ry="2" style="animation-delay: 0.585s" />
  <rect class="box" x="496" y="20" width="10" height="10" fill="#161b22" rx="2" ry="2" style="animation-delay: 0.51s" />
  <rect class="box" x="496" y="34" width="10" height="10" fill="#161b22" rx="2" ry="2" style="animation-delay: 0.525s" />
  <rect class="box" x="496" y="48" width="10" height="10" fill="#0e4429" rx="2" ry="2" style="animation-delay: 0.54s" />
  <rect class="box" x="496" y="62" width="10" height="10" fill="#0e4429" rx="2" ry="2" style="animation-delay: 0.555s" />
  <rect class="box" x="496" y="76" width="10" height="10" fill="#161b22" rx="2" ry="2" style="animation-delay: 0.57s" />
  <rect class="box" x="496" y="90" width="10" height="10" fill="#161b22" rx="2" ry="2" style="animation-delay: 0.585s" />
  <rect class="box" x="496" y="104" width="10" height="10" fill="#161b22" rx="2" ry="2" style="animation-delay: 0.6s" />
  <rect class="box" x="510" y="20" width="10" height="10" fill="#161b22" rx="2" ry="2" style="animation-delay: 0.525s" />
  <rect class="box" x="510" y="34" width="10" height="10" fill="#161b22" rx="2" ry="2" style="animation-delay: 0.54s" />
  <rect class="box" x="510" y="48" width="10" height="10" fill="#161b22" rx="2" ry="2" style="animation-delay: 0.555s" />
  <rect class="box" x="510" y="62" width="10" height="10" fill="#0e4429" rx="2" ry="2" style="animation-delay: 0.57s" />
  <rect class="box" x="510" y="76" width="10" height="10" fill="#0e4429" rx="2" ry="2" style="animation-delay: 0.585s" />
  <rect class="box" x="510" y="90" width="10" height="10" fill="#161b22" rx="2" ry="2" style="animation-delay: 0.6s" />
  <rect class="box" x="510" y="104" width="10" height="10" fill="#0e4429" rx="2" ry="2" style="animation-delay: 0.615s" />
  <rect class="box" x="524" y="20" width="10" height="10" fill="#006d32" rx="2" ry="2" style="animation-delay: 0.54s" />
  <rect class="box" x="524" y="34" width="10" height="10" fill="#161b22" rx="2" ry="2" style="animation-delay: 0.555s" />
  <rect class="box" x="524" y="48" width="10" height="10" fill="#161b22" rx="2" ry="2" style="animation-delay: 0.57s" />
  <rect class="box" x="524" y="62" width="10" height="10" fill="#161b22" rx="2" ry="2" style="animation-delay: 0.585s" />
  <rect class="box" x="524" y="76" width="10" height="10" fill="#161b22" rx="2" ry="2" style="animation-delay: 0.6s" />
  <rect class="box" x="524" y="90" width="10" height="10" fill="#161b22" rx="2" ry="2" style="animation-delay: 0.615s" />
  <rect class="box" x="524" y="104" width="10" height="10" fill="#0e4429" rx="2" ry="2" style="animation-delay: 0.63s" />
  <rect class="box" x="538" y="20" width="10" height="10" fill="#161b22" rx="2" ry="2" style="animation-delay: 0.555s" />
  <rect class="box" x="538" y="34" width="10" height="10" fill="#0e4429" rx="2" ry="2" style="animation-delay: 0.57s" />
  <rect class="box" x="538" y="48" width="10" height="10" fill="#006d32" rx="2" ry="2" style="animation-delay: 0.585s" />
  <rect class="box" x="538" y="62" width="10" height="10" fill="#0e4429" rx="2" ry="2" style="animation-delay: 0.6s" />
  <rect class="box" x="538" y="76" width="10" height="10" fill="#26a641" rx="2" ry="2" style="animation-delay: 0.615s" />
  <rect class="box" x="538" y="90" width="10" height="10" fill="#006d32" rx="2" ry="2" style="animation-delay: 0.63s" />
  <rect class="box" x="538" y="104" width="10" height="10" fill="#161b22" rx="2" ry="2" style="animation-delay: 0.645s" />
  <rect class="box" x="552" y="20" width="10" height="10" fill="#161b22" rx="2" ry="2" style="animation-delay: 0.57s" />
  <rect class="box" x="552" y="34" width="10" height="10" fill="#161b22" rx="2" ry="2" style="animation-delay: 0.585s" />
  <rect class="box" x="552" y="48" width="10" height="10" fill="#161b22" rx="2" ry="2" style="animation-delay: 0.6s" />
  <rect class="box" x="552" y="62" width="10" height="10" fill="#161b22" rx="2" ry="2" style="animation-delay: 0.615s" />
  <rect class="box" x="552" y="76" width="10" height="10" fill="#161b22" rx="2" ry="2" style="animation-delay: 0.63s" />
  <rect class="box" x="552" y="90" width="10" height="10" fill="#161b22" rx="2" ry="2" style="animation-delay: 0.645s" />
  <rect class="box" x="552" y="104" width="10" height="10" fill="#161b22" rx="2" ry="2" style="animation-delay: 0.66s" />
  <rect class="box" x="566" y="20" width="10" height="10" fill="#161b22" rx="2" ry="2" style="animation-delay: 0.585s" />
  <rect class="box" x="566" y="34" width="10" height="10" fill="#161b22" rx="2" ry="2" style="animation-delay: 0.6s" />
  <rect class="box" x="566" y="48" width="10" height="10" fill="#161b22" rx="2" ry="2" style="animation-delay: 0.615s" />
  <rect class="box" x="566" y="62" width="10" height="10" fill="#161b22" rx="2" ry="2" style="animation-delay: 0.63s" />
  <rect class="box" x="566" y="76" width="10" height="10" fill="#161b22" rx="2" ry="2" style="animation-delay: 0.645s" />
  <rect class="box" x="566" y="90" width="10" height="10" fill="#161b22" rx="2" ry="2" style="animation-delay: 0.66s" />
  <rect class="box" x="566" y="104" width="10" height="10" fill="#161b22" rx="2" ry="2" style="animation-delay: 0.675s" />
  <rect class="box" x="580" y="20" width="10" height="10" fill="#161b22" rx="2" ry="2" style="animation-delay: 0.6s" />
  <rect class="box" x="580" y="34" width="10" height="10" fill="#161b22" rx="2" ry="2" style="animation-delay: 0.615s" />
  <rect class="box" x="580" y="48" width="10" height="10" fill="#161b22" rx="2" ry="2" style="animation-delay: 0.63s" />
  <rect class="box" x="580" y="62" width="10" height="10" fill="#161b22" rx="2" ry="2" style="animation-delay: 0.645s" />
  <rect class="box" x="580" y="76" width="10" height="10" fill="#161b22" rx="2" ry="2" style="animation-delay: 0.66s" />
  <rect class="box" x="580" y="90" width="10" height="10" fill="#0e4429" rx="2" ry="2" style="animation-delay: 0.675s" />
  <rect class="box" x="580" y="104" width="10" height="10" fill="#0e4429" rx="2" ry="2" style="animation-delay: 0.69s" />
  <rect class="box" x="594" y="20" width="10" height="10" fill="#0e4429" rx="2" ry="2" style="animation-delay: 0.615s" />
  <rect class="box" x="594" y="34" width="10" height="10" fill="#161b22" rx="2" ry="2" style="animation-delay: 0.63s" />
  <rect class="box" x="594" y="48" width="10" height="10" fill="#161b22" rx="2" ry="2" style="animation-delay: 0.645s" />
  <rect class="box" x="594" y="62" width="10" height="10" fill="#161b22" rx="2" ry="2" style="animation-delay: 0.66s" />
  <rect class="box" x="594" y="76" width="10" height="10" fill="#161b22" rx="2" ry="2" style="animation-delay: 0.675s" />
  <rect class="box" x="594" y="90" width="10" height="10" fill="#0e4429" rx="2" ry="2" style="animation-delay: 0.69s" />
  <rect class="box" x="594" y="104" width="10" height="10" fill="#161b22" rx="2" ry="2" style="animation-delay: 0.705s" />
  <rect class="box" x="608" y="20" width="10" height="10" fill="#161b22" rx="2" ry="2" style="animation-delay: 0.63s" />
  <rect class="box" x="608" y="34" width="10" height="10" fill="#161b22" rx="2" ry="2" style="animation-delay: 0.645s" />
  <rect class="box" x="608" y="48" width="10" height="10" fill="#161b22" rx="2" ry="2" style="animation-delay: 0.66s" />
  <rect class="box" x="608" y="62" width="10" height="10" fill="#161b22" rx="2" ry="2" style="animation-delay: 0.675s" />
  <rect class="box" x="608" y="76" width="10" height="10" fill="#161b22" rx="2" ry="2" style="animation-delay: 0.69s" />
  <rect class="box" x="608" y="90" width="10" height="10" fill="#006d32" rx="2" ry="2" style="animation-delay: 0.705s" />
  <rect class="box" x="608" y="104" width="10" height="10" fill="#161b22" rx="2" ry="2" style="animation-delay: 0.72s" />
  <rect class="box" x="622" y="20" width="10" height="10" fill="#161b22" rx="2" ry="2" style="animation-delay: 0.645s" />
  <rect class="box" x="622" y="34" width="10" height="10" fill="#0e4429" rx="2" ry="2" style="animation-delay: 0.66s" />
  <rect class="box" x="622" y="48" width="10" height="10" fill="#161b22" rx="2" ry="2" style="animation-delay: 0.675s" />
  <rect class="box" x="622" y="62" width="10" height="10" fill="#161b22" rx="2" ry="2" style="animation-delay: 0.69s" />
  <rect class="box" x="622" y="76" width="10" height="10" fill="#161b22" rx="2" ry="2" style="animation-delay: 0.705s" />
  <rect class="box" x="622" y="90" width="10" height="10" fill="#161b22" rx="2" ry="2" style="animation-delay: 0.72s" />
  <rect class="box" x="622" y="104" width="10" height="10" fill="#161b22" rx="2" ry="2" style="animation-delay: 0.735s" />
  <rect class="box" x="636" y="20" width="10" height="10" fill="#161b22" rx="2" ry="2" style="animation-delay: 0.66s" />
  <rect class="box" x="636" y="34" width="10" height="10" fill="#0e4429" rx="2" ry="2" style="animation-delay: 0.675s" />
  <rect class="box" x="636" y="48" width="10" height="10" fill="#0e4429" rx="2" ry="2" style="animation-delay: 0.69s" />
  <rect class="box" x="636" y="62" width="10" height="10" fill="#161b22" rx="2" ry="2" style="animation-delay: 0.705s" />
  <rect class="box" x="636" y="76" width="10" height="10" fill="#0e4429" rx="2" ry="2" style="animation-delay: 0.72s" />
  <rect class="box" x="636" y="90" width="10" height="10" fill="#26a641" rx="2" ry="2" style="animation-delay: 0.735s" />
  <rect class="box" x="636" y="104" width="10" height="10" fill="#006d32" rx="2" ry="2" style="animation-delay: 0.75s" />
  <rect class="box" x="650" y="20" width="10" height="10" fill="#0e4429" rx="2" ry="2" style="animation-delay: 0.675s" />
  <rect class="box" x="650" y="34" width="10" height="10" fill="#0e4429" rx="2" ry="2" style="animation-delay: 0.69s" />
  <rect class="box" x="650" y="48" width="10" height="10" fill="#006d32" rx="2" ry="2" style="animation-delay: 0.705s" />
  <rect class="box" x="650" y="62" width="10" height="10" fill="#161b22" rx="2" ry="2" style="animation-delay: 0.72s" />
  <rect class="box" x="650" y="76" width="10" height="10" fill="#161b22" rx="2" ry="2" style="animation-delay: 0.735s" />
  <rect class="box" x="650" y="90" width="10" height="10" fill="#161b22" rx="2" ry="2" style="animation-delay: 0.75s" />
  <rect class="box" x="650" y="104" width="10" height="10" fill="#161b22" rx="2" ry="2" style="animation-delay: 0.765s" />
  <rect class="box" x="664" y="20" width="10" height="10" fill="#161b22" rx="2" ry="2" style="animation-delay: 0.69s" />
  <rect class="box" x="664" y="34" width="10" height="10" fill="#161b22" rx="2" ry="2" style="animation-delay: 0.705s" />
  <rect class="box" x="664" y="48" width="10" height="10" fill="#161b22" rx="2" ry="2" style="animation-delay: 0.72s" />
  <rect class="box" x="664" y="62" width="10" height="10" fill="#161b22" rx="2" ry="2" style="animation-delay: 0.735s" />
  <rect class="box" x="664" y="76" width="10" height="10" fill="#161b22" rx="2" ry="2" style="animation-delay: 0.75s" />
  <rect class="box" x="664" y="90" width="10" height="10" fill="#161b22" rx="2" ry="2" style="animation-delay: 0.765s" />
  <rect class="box" x="664" y="104" width="10" height="10" fill="#161b22" rx="2" ry="2" style="animation-delay: 0.78s" />
  <rect class="box" x="678" y="20" width="10" height="10" fill="#161b22" rx="2" ry="2" style="animation-delay: 0.705s" />
  <rect class="box" x="678" y="34" width="10" height="10" fill="#161b22" rx="2" ry="2" style="animation-delay: 0.72s" />
  <rect class="box" x="678" y="48" width="10" height="10" fill="#161b22" rx="2" ry="2" style="animation-delay: 0.735s" />
  <rect class="box" x="678" y="62" width="10" height="10" fill="#161b22" rx="2" ry="2" style="animation-delay: 0.75s" />
  <rect class="box" x="678" y="76" width="10" height="10" fill="#161b22" rx="2" ry="2" style="animation-delay: 0.765s" />
  <rect class="box" x="678" y="90" width="10" height="10" fill="#161b22" rx="2" ry="2" style="animation-delay: 0.78s" />
  <rect class="box" x="678" y="104" width="10" height="10" fill="#161b22" rx="2" ry="2" style="animation-delay: 0.795s" />
  <rect class="box" x="692" y="20" width="10" height="10" fill="#161b22" rx="2" ry="2" style="animation-delay: 0.72s" />
  <rect class="box" x="692" y="34" width="10" height="10" fill="#161b22" rx="2" ry="2" style="animation-delay: 0.735s" />
  <rect class="box" x="692" y="48" width="10" height="10" fill="#0e4429" rx="2" ry="2" style="animation-delay: 0.75s" />
  <rect class="box" x="692" y="62" width="10" height="10" fill="#161b22" rx="2" ry="2" style="animation-delay: 0.765s" />
  <rect class="box" x="692" y="76" width="10" height="10" fill="#0e4429" rx="2" ry="2" style="animation-delay: 0.78s" />
  <rect class="box" x="692" y="90" width="10" height="10" fill="#161b22" rx="2" ry="2" style="animation-delay: 0.795s" />
  <rect class="box" x="692" y="104" width="10" height="10" fill="#161b22" rx="2" ry="2" style="animation-delay: 0.81s" />
  <rect class="box" x="706" y="20" width="10" height="10" fill="#161b22" rx="2" ry="2" style="animation-delay: 0.735s" />
  <rect class="box" x="706" y="34" width="10" height="10" fill="#161b22" rx="2" ry="2" style="animation-delay: 0.75s" />
  <rect class="box" x="706" y="48" width="10" height="10" fill="#161b22" rx="2" ry="2" style="animation-delay: 0.765s" />
  <rect class="box" x="706" y="62" width="10" height="10" fill="#161b22" rx="2" ry="2" style="animation-delay: 0.78s" />
  <rect class="box" x="706" y="76" width="10" height="10" fill="#161b22" rx="2" ry="2" style="animation-delay: 0.795s" />
  <rect class="box" x="706" y="90" width="10" height="10" fill="#0e4429" rx="2" ry="2" style="animation-delay: 0.81s" />
  <rect class="box" x="706" y="104" width="10" height="10" fill="#161b22" rx="2" ry="2" style="animation-delay: 0.825s" />
  <rect class="box" x="720" y="20" width="10" height="10" fill="#161b22" rx="2" ry="2" style="animation-delay: 0.75s" />
  <rect class="box" x="720" y="34" width="10" height="10" fill="#161b22" rx="2" ry="2" style="animation-delay: 0.765s" />
  <rect class="box" x="720" y="48" width="10" height="10" fill="#0e4429" rx="2" ry="2" style="animation-delay: 0.78s" />
  <rect class="box" x="720" y="62" width="10" height="10" fill="#006d32" rx="2" ry="2" style="animation-delay: 0.795s" />
  <rect class="box" x="720" y="76" width="10" height="10" fill="#0e4429" rx="2" ry="2" style="animation-delay: 0.81s" />
  <rect class="box" x="720" y="90" width="10" height="10" fill="#161b22" rx="2" ry="2" style="animation-delay: 0.825s" />
  <rect class="box" x="720" y="104" width="10" height="10" fill="#161b22" rx="2" ry="2" style="animation-delay: 0.84s" />
  <rect class="box" x="734" y="20" width="10" height="10" fill="#0e4429" rx="2" ry="2" style="animation-delay: 0.765s" />
  <rect class="box" x="734" y="34" width="10" height="10" fill="#161b22" rx="2" ry="2" style="animation-delay: 0.78s" />
  <rect class="box" x="734" y="48" width="10" height="10" fill="#161b22" rx="2" ry="2" style="animation-delay: 0.795s" />
  <rect class="box" x="734" y="62" width="10" height="10" fill="#161b22" rx="2" ry="2" style="animation-delay: 0.81s" />
  <rect class="box" x="734" y="76" width="10" height="10" fill="#161b22" rx="2" ry="2" style="animation-delay: 0.825s" />
  <rect class="box" x="734" y="90" width="10" height="10" fill="#0e4429" rx="2" ry="2" style="animation-delay: 0.84s" />
  <rect class="box" x="734" y="104" width="10" height="10" fill="#161b22" rx="2" ry="2" style="animation-delay: 0.855s" />
  <rect class="box" x="748" y="20" width="10" height="10" fill="#161b22" rx="2" ry="2" style="animation-delay: 0.78s" />
  <rect class="box" x="748" y="34" width="10" height="10" fill="#0e4429" rx="2" ry="2" style="animation-delay: 0.795s" />
  <rect class="box" x="748" y="48" width="10" height="10" fill="#26a641" rx="2" ry="2" style="animation-delay: 0.81s" />
  <rect class="box" x="748" y="62" width="10" height="10" fill="#26a641" rx="2" ry="2" style="animation-delay: 0.825s" />
  <rect class="box" x="748" y="76" width="10" height="10" fill="#0e4429" rx="2" ry="2" style="animation-delay: 0.84s" />
  <rect class="box" x="748" y="90" width="10" height="10" fill="#26a641" rx="2" ry="2" style="animation-delay: 0.855s" />
  <rect class="box" x="748" y="104" width="10" height="10" fill="#0e4429" rx="2" ry="2" style="animation-delay: 0.87s" />
  <text x="617" y="141" class="text">Less</text>
  <rect x="652" y="133" width="10" height="10" fill="#161b22" rx="2" ry="2"/>
  <rect x="666" y="133" width="10" height="10" fill="#0e4429" rx="2" ry="2"/>
  <rect x="680" y="133" width="10" height="10" fill="#006d32" rx="2" ry="2"/>
  <rect x="694" y="133" width="10" height="10" fill="#26a641" rx="2" ry="2"/>
  <rect x="708" y="133" width="10" height="10" fill="#39d353" rx="2" ry="2"/>
  <rect x="722" y="133" width="10" height="10" fill="#69f0a0" rx="2" ry="2"/>
  <text x="741" y="141" class="text">More</text>
</svg>